<svg viewBox="0 0 800 470" xmlns="http://www.w3.org/2000/svg">
  <style>
  @media (prefers-color-scheme: dark) {
    text { fill: black; }
  }
  </style>

  <!-- B-Tree Container -->
  <rect x="50" y="20" width="700" height="430" fill="#e6f7ff" stroke="#1890ff" stroke-width="3" rx="10" ry="10" />
  <text x="400" y="60" font-family="Arial" font-size="24" text-anchor="middle" font-weight="bold">B-Tree</text>
  
  <!-- Page (Before) -->
  <rect x="100" y="90" width="250" height="330" fill="#91caff" stroke="#1890ff" stroke-width="2" rx="5" ry="5" />
  <text x="225" y="120" font-family="Arial" font-size="18" text-anchor="middle">Page (Before)</text>
  
  <!-- Sectors in Page (Before) -->
  <rect x="120" y="140" width="210" height="30" fill="#e6f2ff" stroke="#1890ff" />
  <text x="135" y="160" font-family="Courier" font-size="14" font-weight="bold">00</text>
  <line x1="165" y1="140" x2="165" y2="170" stroke="#1890ff" />
  <text x="175" y="160" font-family="Arial" font-size="12">Sector 1 Data</text>
  
  <rect x="120" y="175" width="210" height="30" fill="#e6f2ff" stroke="#1890ff" />
  <text x="135" y="195" font-family="Courier" font-size="14" font-weight="bold">00</text>
  <line x1="165" y1="175" x2="165" y2="205" stroke="#1890ff" />
  <text x="175" y="195" font-family="Arial" font-size="12">Sector 2 Data</text>
  
  <rect x="120" y="210" width="210" height="30" fill="#e6f2ff" stroke="#1890ff" />
  <text x="135" y="230" font-family="Courier" font-size="14" font-weight="bold">00</text>
  <line x1="165" y1="210" x2="165" y2="240" stroke="#1890ff" />
  <text x="175" y="230" font-family="Arial" font-size="12">Sector 3 Data</text>
  
  <rect x="120" y="245" width="210" height="30" fill="#e6f2ff" stroke="#1890ff" />
  <text x="135" y="265" font-family="Courier" font-size="14" font-weight="bold">00</text>
  <line x1="165" y1="245" x2="165" y2="275" stroke="#1890ff" />
  <text x="175" y="265" font-family="Arial" font-size="12">Sector 4 Data</text>
  
  <rect x="120" y="280" width="210" height="30" fill="#e6f2ff" stroke="#1890ff" />
  <text x="135" y="300" font-family="Courier" font-size="14" font-weight="bold">00</text>
  <line x1="165" y1="280" x2="165" y2="310" stroke="#1890ff" />
  <text x="175" y="300" font-family="Arial" font-size="12">Sector 5 Data</text>
  
  <rect x="120" y="315" width="210" height="30" fill="#e6f2ff" stroke="#1890ff" />
  <text x="135" y="335" font-family="Courier" font-size="14" font-weight="bold">00</text>
  <line x1="165" y1="315" x2="165" y2="345" stroke="#1890ff" />
  <text x="175" y="335" font-family="Arial" font-size="12">Sector 6 Data</text>
  
  <rect x="120" y="350" width="210" height="30" fill="#e6f2ff" stroke="#1890ff" />
  <text x="135" y="370" font-family="Courier" font-size="14" font-weight="bold">00</text>
  <line x1="165" y1="350" x2="165" y2="380" stroke="#1890ff" />
  <text x="175" y="370" font-family="Arial" font-size="12">Sector 7 Data</text>
  
  <rect x="120" y="385" width="210" height="30" fill="#e6f2ff" stroke="#1890ff" />
  <text x="135" y="405" font-family="Courier" font-size="14" font-weight="bold">00</text>
  <line x1="165" y1="385" x2="165" y2="415" stroke="#1890ff" />
  <text x="175" y="405" font-family="Arial" font-size="12">Sector 8 Data</text>
  
  <!-- Page (After) -->
  <rect x="450" y="90" width="250" height="330" fill="#b7eb8f" stroke="#52c41a" stroke-width="2" rx="5" ry="5" />
  <text x="575" y="120" font-family="Arial" font-size="18" text-anchor="middle">Page (After)</text>
  
  <!-- Sectors in Page (After) - First half updated -->
  <rect x="470" y="140" width="210" height="30" fill="#eaffef" stroke="#52c41a" />
  <text x="485" y="160" font-family="Courier" font-size="14" font-weight="bold">01</text>
  <line x1="515" y1="140" x2="515" y2="170" stroke="#52c41a" />
  <text x="525" y="160" font-family="Arial" font-size="12">Updated Sector 1</text>
  
  <rect x="470" y="175" width="210" height="30" fill="#eaffef" stroke="#52c41a" />
  <text x="485" y="195" font-family="Courier" font-size="14" font-weight="bold">01</text>
  <line x1="515" y1="175" x2="515" y2="205" stroke="#52c41a" />
  <text x="525" y="195" font-family="Arial" font-size="12">Updated Sector 2</text>
  
  <rect x="470" y="210" width="210" height="30" fill="#eaffef" stroke="#52c41a" />
  <text x="485" y="230" font-family="Courier" font-size="14" font-weight="bold">01</text>
  <line x1="515" y1="210" x2="515" y2="240" stroke="#52c41a" />
  <text x="525" y="230" font-family="Arial" font-size="12">Updated Sector 3</text>
  
  <rect x="470" y="245" width="210" height="30" fill="#eaffef" stroke="#52c41a" />
  <text x="485" y="265" font-family="Courier" font-size="14" font-weight="bold">01</text>
  <line x1="515" y1="245" x2="515" y2="275" stroke="#52c41a" />
  <text x="525" y="265" font-family="Arial" font-size="12">Updated Sector 4</text>
  
  <!-- Second half unchanged (torn write) -->
  <rect x="470" y="280" width="210" height="30" fill="#e6f2ff" stroke="#1890ff" />
  <text x="485" y="300" font-family="Courier" font-size="14" font-weight="bold">00</text>
  <line x1="515" y1="280" x2="515" y2="310" stroke="#1890ff" />
  <text x="525" y="300" font-family="Arial" font-size="12">Sector 5 Data</text>
  
  <rect x="470" y="315" width="210" height="30" fill="#e6f2ff" stroke="#1890ff" />
  <text x="485" y="335" font-family="Courier" font-size="14" font-weight="bold">00</text>
  <line x1="515" y1="315" x2="515" y2="345" stroke="#1890ff" />
  <text x="525" y="335" font-family="Arial" font-size="12">Sector 6 Data</text>
  
  <rect x="470" y="350" width="210" height="30" fill="#e6f2ff" stroke="#1890ff" />
  <text x="485" y="370" font-family="Courier" font-size="14" font-weight="bold">00</text>
  <line x1="515" y1="350" x2="515" y2="380" stroke="#1890ff" />
  <text x="525" y="370" font-family="Arial" font-size="12">Sector 7 Data</text>
  
  <rect x="470" y="385" width="210" height="30" fill="#e6f2ff" stroke="#1890ff" />
  <text x="485" y="405" font-family="Courier" font-size="14" font-weight="bold">00</text>
  <line x1="515" y1="385" x2="515" y2="415" stroke="#1890ff" />
  <text x="525" y="405" font-family="Arial" font-size="12">Sector 8 Data</text>
  
  <!-- Arrow showing transition -->
  <path d="M 370 270 L 430 270" stroke="#333" stroke-width="2" fill="none" />
  <polygon points="430,270 420,265 420,275" fill="#333" />
</svg>
